<svg xmlns="http://www.w3.org/2000/svg" width="60" height="40" viewBox="0 0 60 40" fill="none">
  <rect width="60" height="40" fill="#DE2910"/>
  <path d="M12 6l1.4 4.3h4.6l-3.7 2.7l1.4 4.3L12 14.6L8.3 17.3l1.4-4.3L6 10.3h4.6L12 6Z" fill="#FFDE00"/>
  <path d="M21.5 8l.7 2.1h2.2l-1.8 1.3l.7 2.1l-1.8-1.3L19.7 13l.7-2.1l-1.8-1.3h2.2L21.5 8Z" fill="#FFDE00"/>
  <path d="M24.5 13l.7 2.1h2.2l-1.8 1.3l.7 2.1l-1.8-1.3l-1.8 1.3l.7-2.1l-1.8-1.3h2.2L24.5 13Z" fill="#FFDE00"/>
  <path d="M24 19l.7 2.1h2.2l-1.8 1.3l.7 2.1l-1.8-1.3l-1.8 1.3l.7-2.1l-1.8-1.3h2.2L24 19Z" fill="#FFDE00"/>
  <path d="M20.5 23l.7 2.1h2.2l-1.8 1.3l.7 2.1l-1.8-1.3l-1.8 1.3l.7-2.1l-1.8-1.3h2.2L20.5 23Z" fill="#FFDE00"/>
</svg>
